<svg width="64" height="64" viewBox="0 0 64 64" fill="none" xmlns="http://www.w3.org/2000/svg">
  <rect width="64" height="64" rx="16" fill="#000000" />
  <path
    d="M22 45C17.5817 45 14 41.4183 14 37C14 32.9737 16.9738 29.642 20.8422 29.0804C22.1938 23.8201 26.9645 20 32.8 20C39.8625 20 45.6286 25.5515 45.9737 32.5282C49.4804 33.0095 52.2 36.0208 52.2 39.6591C52.2 43.6338 48.9779 46.8559 45.0032 46.8559H22V45Z"
    fill="white"
  />
  <path
    d="M22 45C17.5817 45 14 41.4183 14 37C14 32.9737 16.9738 29.642 20.8422 29.0804C22.1938 23.8201 26.9645 20 32.8 20C39.8625 20 45.6286 25.5515 45.9737 32.5282C49.4804 33.0095 52.2 36.0208 52.2 39.6591C52.2 43.6338 48.9779 46.8559 45.0032 46.8559H22V45Z"
    fill="url(#paint0_linear_1_2)"
    fill-opacity="0.22"
  />
  <defs>
    <linearGradient id="paint0_linear_1_2" x1="22.5" y1="21" x2="43.5" y2="46.5" gradientUnits="userSpaceOnUse">
      <stop stop-color="#E0F2FE" />
      <stop offset="1" stop-color="#0EA5E9" />
    </linearGradient>
  </defs>
</svg>
